<svg xmlns="http://www.w3.org/2000/svg" viewBox="0 0 277.1 10.32"><defs><style>.cls-1{fill:#39b54a;}</style></defs><g id="Layer_2" data-name="Layer 2"><g id="Layer_1-2" data-name="Layer 1"><path class="cls-1" d="M209.76,9.53a.31.31,0,0,0-.14-.2.25.25,0,0,0,.14-.24.3.3,0,0,0-.1-.22.28.28,0,0,0,0-.46.27.27,0,0,0,.14-.25.29.29,0,0,0-.1-.22.29.29,0,0,0,.1-.22.28.28,0,0,0-.13-.24.27.27,0,0,0,.13-.25.31.31,0,0,0-.09-.22.27.27,0,0,0,.09-.22.31.31,0,0,0-.13-.25.27.27,0,0,0,.13-.25.29.29,0,0,0-.09-.22.27.27,0,0,0,.09-.22.31.31,0,0,0-.12-.24.3.3,0,0,0,.12-.24.32.32,0,0,0-.09-.22.28.28,0,0,0,.09-.22.3.3,0,0,0-.12-.24.27.27,0,0,0,.12-.25.31.31,0,0,0-.09-.22.26.26,0,0,0,.09-.21.32.32,0,0,0-.13-.26.24.24,0,0,0,.13-.23.33.33,0,0,0-.1-.23.25.25,0,0,0,.1-.21.27.27,0,0,0-.14-.25.27.27,0,0,0,.14-.24.29.29,0,0,0-.1-.22.3.3,0,0,0,.1-.22.31.31,0,0,0-.13-.25.24.24,0,0,0,.13-.23.33.33,0,0,0-.1-.23.25.25,0,0,0,.1-.21.27.27,0,0,0-.14-.25.27.27,0,0,0,.14-.24.29.29,0,0,0-.1-.22.3.3,0,0,0,.1-.22.3.3,0,0,0-.31-.3H190.37a.3.3,0,0,0-.31.3.3.3,0,0,0,.1.22.29.29,0,0,0-.1.22.31.31,0,0,0,.13.24.29.29,0,0,0-.13.25.25.25,0,0,0,.1.21.29.29,0,0,0-.1.23.24.24,0,0,0,.13.23.3.3,0,0,0-.13.25.3.3,0,0,0,.1.22.29.29,0,0,0-.1.22.28.28,0,0,0,.13.24.29.29,0,0,0,0,.46.29.29,0,0,0-.1.22.26.26,0,0,0,.13.24.31.31,0,0,0-.13.25.25.25,0,0,0,.09.22.36.36,0,0,0-.09.22.27.27,0,0,0,.12.25.28.28,0,0,0-.12.23.3.3,0,0,0,.09.23.29.29,0,0,0-.09.21.3.3,0,0,0,.12.25.32.32,0,0,0-.12.25.28.28,0,0,0,.09.22.31.31,0,0,0-.09.21.26.26,0,0,0,.13.25.32.32,0,0,0-.13.26.27.27,0,0,0,.09.22.28.28,0,0,0-.09.22.27.27,0,0,0,.13.24.27.27,0,0,0-.13.24.29.29,0,0,0,.1.22.27.27,0,0,0-.1.22.29.29,0,0,0,.13.25.29.29,0,0,0,0,.46.29.29,0,0,0-.1.22.26.26,0,0,0,.13.24.34.34,0,0,0-.13.27.22.22,0,0,0,.1.19.36.36,0,0,0-.1.25c0,.17.14.22.26.28h2l0,0,0,0h4l0,0,0,0h2l0,0,0,0h6l.05,0,0,0h2l0,0,0,0h3l.06,0a.28.28,0,0,0,.22-.32.29.29,0,0,0-.11-.18A.24.24,0,0,0,209.76,9.53ZM194.49,7a.23.23,0,0,0,.1-.22.31.31,0,0,0-.14-.25.26.26,0,0,0,.14-.25.3.3,0,0,0-.1-.22.23.23,0,0,0,.1-.22.29.29,0,0,0-.13-.24.28.28,0,0,0,.13-.24.29.29,0,0,0-.1-.22.3.3,0,0,0,.1-.22.28.28,0,0,0-.13-.24.27.27,0,0,0,.13-.25.32.32,0,0,0-.1-.22.23.23,0,0,0,.1-.22.32.32,0,0,0-.14-.25.26.26,0,0,0,.14-.24.27.27,0,0,0-.11-.22.25.25,0,0,0,.11-.21.28.28,0,0,0-.08-.2h10.8a.29.29,0,0,0-.08.21.26.26,0,0,0,.1.2.31.31,0,0,0-.1.23.23.23,0,0,0,.14.23.3.3,0,0,0-.14.26.29.29,0,0,0,.09.21.36.36,0,0,0-.09.23.27.27,0,0,0,.12.23.34.34,0,0,0-.12.26.31.31,0,0,0,.09.21.29.29,0,0,0-.09.23.28.28,0,0,0,.12.23.31.31,0,0,0-.12.24.27.27,0,0,0,.09.22.34.34,0,0,0-.09.22.27.27,0,0,0,.14.25.3.3,0,0,0-.14.26.29.29,0,0,0,.09.21.36.36,0,0,0-.09.23.26.26,0,0,0,.08.19h-10.8a.22.22,0,0,0,.08-.2A.3.3,0,0,0,194.49,7Z"/><path class="cls-1" d="M161.53,9.48a.37.37,0,0,0-.13-.15.27.27,0,0,0,.15-.24.3.3,0,0,0-.11-.22.27.27,0,0,0,.11-.22.29.29,0,0,0-.14-.24.31.31,0,0,0,.14-.25.27.27,0,0,0-.11-.22.27.27,0,0,0,.11-.22.27.27,0,0,0-.14-.24.27.27,0,0,0,.14-.24.33.33,0,0,0-.1-.23.27.27,0,0,0,.1-.21.31.31,0,0,0-.15-.26.27.27,0,0,0,.15-.24.33.33,0,0,0-.1-.23.27.27,0,0,0,.1-.21.31.31,0,0,0-.13-.25.3.3,0,0,0,.13-.23.33.33,0,0,0-.1-.23.28.28,0,0,0,.1-.21.29.29,0,0,0-.13-.25.28.28,0,0,0,.13-.24.33.33,0,0,0-.1-.23.27.27,0,0,0,.1-.21.33.33,0,0,0-.14-.26.28.28,0,0,0,.14-.24.3.3,0,0,0-.11-.22.27.27,0,0,0,.11-.22.29.29,0,0,0-.14-.24.29.29,0,0,0,.14-.24.27.27,0,0,0-.11-.22.31.31,0,0,0,.11-.22.32.32,0,0,0-.14-.25.26.26,0,0,0,.14-.23.3.3,0,0,0-.11-.23.27.27,0,0,0,.11-.21A.29.29,0,0,0,161.4,1a.28.28,0,0,0,.15-.24.27.27,0,0,0-.11-.22.33.33,0,0,0,.11-.22.32.32,0,0,0-.32-.3h-3.9a.29.29,0,0,0-.31.3.3.3,0,0,0,.1.22.26.26,0,0,0-.1.22.28.28,0,0,0,.13.24.27.27,0,0,0-.13.24.27.27,0,0,0,.09.22.27.27,0,0,0-.09.22.23.23,0,0,0,.13.24.32.32,0,0,0-.13.26.3.3,0,0,0,.1.21.26.26,0,0,0-.1.22.28.28,0,0,0,.13.24.27.27,0,0,0-.13.25.26.26,0,0,0,.09.21.28.28,0,0,0-.09.22.24.24,0,0,0,.13.24A.32.32,0,0,0,157,4a.27.27,0,0,0,.09.22.28.28,0,0,0-.09.22.26.26,0,0,0,.12.24.26.26,0,0,0-.12.23.32.32,0,0,0,.09.23.26.26,0,0,0-.09.21.28.28,0,0,0,.12.25.27.27,0,0,0-.12.24.24.24,0,0,0,.09.22.29.29,0,0,0-.09.22.23.23,0,0,0,.13.25.3.3,0,0,0-.13.25.27.27,0,0,0,.09.22.29.29,0,0,0-.09.22.3.3,0,0,0,.06.2H146.3a.28.28,0,0,0,.08-.2.32.32,0,0,0-.1-.22.27.27,0,0,0,.1-.21.31.31,0,0,0-.15-.26.28.28,0,0,0,.15-.23.35.35,0,0,0-.1-.24.26.26,0,0,0,.1-.2.32.32,0,0,0-.13-.26.31.31,0,0,0,.13-.25.28.28,0,0,0-.1-.21.33.33,0,0,0,.1-.23.27.27,0,0,0-.14-.23.27.27,0,0,0,.14-.24.33.33,0,0,0-.1-.23.27.27,0,0,0,.1-.21.31.31,0,0,0-.15-.26.28.28,0,0,0,.15-.24.27.27,0,0,0-.12-.22.25.25,0,0,0,.12-.22.28.28,0,0,0-.15-.24.28.28,0,0,0,.15-.24.34.34,0,0,0-.11-.23.26.26,0,0,0,.11-.21.31.31,0,0,0-.15-.25.26.26,0,0,0,.15-.23.27.27,0,0,0-.12-.23.26.26,0,0,0,.12-.21.28.28,0,0,0-.15-.25.31.31,0,0,0,.15-.25.29.29,0,0,0-.11-.21.29.29,0,0,0,.11-.22.32.32,0,0,0-.31-.3h-3.92a.29.29,0,0,0-.3.3.3.3,0,0,0,.1.22.23.23,0,0,0-.1.22A.28.28,0,0,0,142,1a.25.25,0,0,0-.13.25.24.24,0,0,0,.1.21.24.24,0,0,0-.1.23.23.23,0,0,0,.13.23.31.31,0,0,0-.13.25.27.27,0,0,0,.1.22.29.29,0,0,0-.1.22.28.28,0,0,0,.13.24.25.25,0,0,0-.13.25.26.26,0,0,0,.09.21.26.26,0,0,0-.09.23.23.23,0,0,0,.13.23.32.32,0,0,0-.13.26.25.25,0,0,0,.09.21.32.32,0,0,0-.09.23.26.26,0,0,0,.12.24.31.31,0,0,0,0,.46.27.27,0,0,0-.09.22.25.25,0,0,0,.12.24.3.3,0,0,0-.12.25.27.27,0,0,0,.09.22.28.28,0,0,0-.09.22.23.23,0,0,0,.13.24.3.3,0,0,0-.13.25.24.24,0,0,0,.09.22.29.29,0,0,0-.09.22.26.26,0,0,0,.12.25.26.26,0,0,0-.12.24.28.28,0,0,0,.09.22.27.27,0,0,0-.09.22.26.26,0,0,0,.13.25.25.25,0,0,0-.13.24.27.27,0,0,0,.09.22.28.28,0,0,0-.09.22.24.24,0,0,0,.13.24.29.29,0,0,0-.13.26.22.22,0,0,0,.1.2.28.28,0,0,0-.1.24c0,.17.13.23.26.29h2.09l0,0,0,0h.17l0,0,0,0h.17l0,0,0,0h.17l0,0,0,0h3.09l0,0,0,0h2l0,0,0,0h8l0,0,0,0h3l.07,0a.29.29,0,0,0,.16-.36.38.38,0,0,0-.09-.13A.25.25,0,0,0,161.53,9.48Z"/><path class="cls-1" d="M235.86,9.51a.32.32,0,0,0-.31-.23h-.78a.23.23,0,0,0,.08-.18.27.27,0,0,0-.11-.23.25.25,0,0,0,.11-.21.31.31,0,0,0-.32-.3h-.81a.27.27,0,0,0,.11-.23.29.29,0,0,0-.11-.21.27.27,0,0,0,.11-.23.3.3,0,0,0-.31-.28h-.78a.26.26,0,0,0,.08-.19.33.33,0,0,0-.11-.22.27.27,0,0,0,.11-.22.33.33,0,0,0-.32-.3h-.77a.27.27,0,0,0,.07-.2.29.29,0,0,0-.09-.22.27.27,0,0,0,.09-.22.3.3,0,0,0-.31-.3h-.76a.28.28,0,0,0,.06-.18.29.29,0,0,0-.1-.22.29.29,0,0,0,.1-.22.28.28,0,0,0-.08-.2h.79c.2,0,.32-.1.32-.28a.32.32,0,0,0-.09-.23.25.25,0,0,0,.09-.21.28.28,0,0,0-.09-.22h.79a.27.27,0,0,0,.3-.29.29.29,0,0,0-.09-.22.24.24,0,0,0,.09-.22.28.28,0,0,0-.06-.18h.74a.31.31,0,0,0,.33-.29.27.27,0,0,0-.11-.22.31.31,0,0,0,.11-.22.31.31,0,0,0-.09-.21h.79a.29.29,0,0,0,.32-.27.27.27,0,0,0-.11-.23.25.25,0,0,0,.11-.21.25.25,0,0,0-.09-.21h.78a.3.3,0,0,0,.32-.29.29.29,0,0,0-.1-.22.3.3,0,0,0,.1-.22.3.3,0,0,0-.31-.3h-5a.31.31,0,0,0-.3.3.3.3,0,0,0,.1.22.28.28,0,0,0-.1.21.32.32,0,0,0,.08.21h-.76a.29.29,0,0,0-.32.29.23.23,0,0,0,.1.22.29.29,0,0,0-.1.22.22.22,0,0,0,.07.19h-.76a.31.31,0,0,0-.32.3.28.28,0,0,0,.11.22.27.27,0,0,0-.11.22.23.23,0,0,0,.06.16h-.75a.31.31,0,0,0-.33.31.28.28,0,0,0,.11.21.26.26,0,0,0-.11.22.29.29,0,0,0,.13.24h-.84a.28.28,0,0,0-.13,0h-.78a.25.25,0,0,0,.1-.22.29.29,0,0,0-.1-.22.28.28,0,0,0,.1-.22.31.31,0,0,0-.32-.3h-.76a.23.23,0,0,0,.06-.16.29.29,0,0,0-.1-.22.3.3,0,0,0-.21-.52h-.76a.24.24,0,0,0,.06-.19.28.28,0,0,0-.09-.22.24.24,0,0,0,.09-.22.28.28,0,0,0-.31-.29h-.77a.27.27,0,0,0,.08-.19.26.26,0,0,0-.1-.23.28.28,0,0,0,.1-.21.3.3,0,0,0-.3-.31h-4.94a.31.31,0,0,0-.32.29.3.3,0,0,0,.11.23.25.25,0,0,0-.11.21.3.3,0,0,0,.31.3h.79a.3.3,0,0,0-.08.19.27.27,0,0,0,.1.22.32.32,0,0,0-.1.22.27.27,0,0,0,.3.28h.81a.3.3,0,0,0-.1.22.36.36,0,0,0,.11.21.28.28,0,0,0-.11.23.31.31,0,0,0,.33.28h.74a.26.26,0,0,0-.06.19.24.24,0,0,0,.1.21.26.26,0,0,0-.1.23.27.27,0,0,0,.3.28h.79a.31.31,0,0,0-.09.21.25.25,0,0,0,.1.22.32.32,0,0,0-.1.22.28.28,0,0,0,.31.29h.8a.28.28,0,0,0-.08.2.32.32,0,0,0,.1.22.29.29,0,0,0-.1.22.26.26,0,0,0,.07.18h-.77a.3.3,0,0,0-.31.31.23.23,0,0,0,.09.21.32.32,0,0,0-.09.23.27.27,0,0,0,.07.19h-.76a.3.3,0,0,0-.31.31.25.25,0,0,0,.09.21.32.32,0,0,0-.09.23.24.24,0,0,0,.06.18h-.76a.31.31,0,0,0-.33.29.27.27,0,0,0,.11.22.33.33,0,0,0-.11.21.27.27,0,0,0,.11.23h-.81a.29.29,0,0,0-.31.29.27.27,0,0,0,.1.22.29.29,0,0,0-.1.22.27.27,0,0,0,.07.19h-.76a.34.34,0,0,0-.33.23.27.27,0,0,0,.11.28.36.36,0,0,0-.11.16.29.29,0,0,0,.2.33l0,0h4l0,0,0,0h.06l0,0,0,0h.17l0,0,0,0h.17l0,0,0,0h.18l0,0,0,0h.06l.08,0a.28.28,0,0,0,.2-.33.3.3,0,0,0-.1-.17.25.25,0,0,0,.1-.27.28.28,0,0,0-.08-.15h.76a.27.27,0,0,0,.32-.27.26.26,0,0,0-.09-.23.26.26,0,0,0,.09-.21.24.24,0,0,0-.1-.23h.8a.27.27,0,0,0,.31-.27.29.29,0,0,0-.1-.23.3.3,0,0,0,.1-.21.32.32,0,0,0-.07-.2h1.79a.31.31,0,0,0,.13,0h.87a.32.32,0,0,0,.14,0h.78a.28.28,0,0,0-.08.2.27.27,0,0,0,.11.21.27.27,0,0,0-.11.23.28.28,0,0,0,.32.27h.8a.27.27,0,0,0-.11.22.25.25,0,0,0,.1.22.29.29,0,0,0-.1.22c0,.18.12.28.32.28h.77a.24.24,0,0,0-.09.14.28.28,0,0,0,.11.28.29.29,0,0,0-.11.16.3.3,0,0,0,.18.33l.07,0h1l0,0,0,0h1l0,0,0,0h3s0,0,.06,0a.29.29,0,0,0,.2-.34.36.36,0,0,0-.11-.16A.27.27,0,0,0,235.86,9.51Z"/><path class="cls-1" d="M17.67,9.51a.28.28,0,0,0-.13-.18.25.25,0,0,0,.14-.23.29.29,0,0,0-.1-.23.3.3,0,0,0,.1-.21.29.29,0,0,0-.13-.25.3.3,0,0,0,.13-.25.27.27,0,0,0-.1-.22.29.29,0,0,0,.1-.22.27.27,0,0,0-.13-.24.27.27,0,0,0,.13-.24A.32.32,0,0,0,17.59,7a.3.3,0,0,0,.09-.22.32.32,0,0,0-.13-.26.26.26,0,0,0,.13-.24.32.32,0,0,0-.09-.22.3.3,0,0,0,.09-.22.33.33,0,0,0-.12-.25.31.31,0,0,0,.12-.23.32.32,0,0,0-.09-.23.31.31,0,0,0,.09-.21.29.29,0,0,0-.12-.25.31.31,0,0,0,.12-.23.32.32,0,0,0-.09-.23A.34.34,0,0,0,17.68,4a.32.32,0,0,0-.13-.27.26.26,0,0,0,.13-.24.32.32,0,0,0-.1-.22.27.27,0,0,0,.1-.22.29.29,0,0,0-.13-.24.29.29,0,0,0,.13-.25.28.28,0,0,0-.1-.21.31.31,0,0,0,.1-.23.33.33,0,0,0-.14-.24.25.25,0,0,0,.14-.24.32.32,0,0,0-.1-.22.27.27,0,0,0,.1-.22A.29.29,0,0,0,17.55,1a.34.34,0,0,0,.13-.23.29.29,0,0,0-.1-.23.32.32,0,0,0,.1-.21.3.3,0,0,0-.3-.31H13.45a.31.31,0,0,0-.3.3.32.32,0,0,0,.1.22.28.28,0,0,0-.1.21.26.26,0,0,0,.14.25.27.27,0,0,0-.14.24.25.25,0,0,0,.1.22.3.3,0,0,0-.1.22.23.23,0,0,0,.14.24.3.3,0,0,0-.14.25.3.3,0,0,0,.1.22.29.29,0,0,0-.1.22.27.27,0,0,0,.14.24.27.27,0,0,0-.14.25.27.27,0,0,0,.1.21.31.31,0,0,0-.1.23.25.25,0,0,0,.13.23.31.31,0,0,0-.13.25.24.24,0,0,0,.09.22.31.31,0,0,0-.09.22.26.26,0,0,0,.12.25.27.27,0,0,0-.12.24.29.29,0,0,0,.09.22.28.28,0,0,0-.09.22.3.3,0,0,0,.12.24.3.3,0,0,0-.12.25.25.25,0,0,0,.09.21.32.32,0,0,0-.09.23.24.24,0,0,0,.07.19h-.67a.32.32,0,0,0,.07-.2.34.34,0,0,0-.09-.22.27.27,0,0,0,.09-.22.3.3,0,0,0-.31-.3h-.77a.28.28,0,0,0,0-.4.29.29,0,0,0,.1-.22.3.3,0,0,0-.31-.3h-.76a.29.29,0,0,0,.07-.19.37.37,0,0,0-.1-.22.27.27,0,0,0,.1-.22.33.33,0,0,0-.32-.3H9.51a.24.24,0,0,0,.07-.19.29.29,0,0,0-.1-.22.25.25,0,0,0,.1-.22.28.28,0,0,0-.31-.29H8.48a.25.25,0,0,0,.09-.2.27.27,0,0,0-.11-.22.28.28,0,0,0,.11-.22.31.31,0,0,0-.31-.3H7.48a.3.3,0,0,0,.07-.18.29.29,0,0,0-.1-.23.3.3,0,0,0,.1-.21.29.29,0,0,0-.31-.3H6.46a.28.28,0,0,0,.08-.2.26.26,0,0,0-.1-.22A.3.3,0,0,0,6.54.3.3.3,0,0,0,6.23,0H.32A.31.31,0,0,0,0,.3.3.3,0,0,0,.1.52.29.29,0,0,0,0,.74.28.28,0,0,0,.13,1,.29.29,0,0,0,0,1.23a.27.27,0,0,0,.1.21.29.29,0,0,0-.1.23.24.24,0,0,0,.13.23A.31.31,0,0,0,0,2.15a.29.29,0,0,0,.1.22.29.29,0,0,0-.1.22.27.27,0,0,0,.13.24A.29.29,0,0,0,0,3.09a.23.23,0,0,0,.1.2.33.33,0,0,0-.1.24.24.24,0,0,0,.13.22A.3.3,0,0,0,0,4a.27.27,0,0,0,.09.22A.34.34,0,0,0,0,4.44a.28.28,0,0,0,.12.25A.28.28,0,0,0,0,4.93a.29.29,0,0,0,.09.22A.27.27,0,0,0,0,5.37a.3.3,0,0,0,.12.24A.31.31,0,0,0,0,5.85a.27.27,0,0,0,.09.22A.34.34,0,0,0,0,6.29a.26.26,0,0,0,.13.25A.32.32,0,0,0,0,6.8.28.28,0,0,0,.09,7,.28.28,0,0,0,0,7.24a.26.26,0,0,0,.12.24A.3.3,0,0,0,0,7.73a.31.31,0,0,0,.09.21A.29.29,0,0,0,0,8.17a.28.28,0,0,0,.13.24A.29.29,0,0,0,0,8.66a.27.27,0,0,0,.1.21.29.29,0,0,0-.1.22.25.25,0,0,0,.13.24A.31.31,0,0,0,0,9.58a.27.27,0,0,0,.1.22A.29.29,0,0,0,0,10c0,.18.13.24.26.3H2.35l0,0,0,0H2.6l0,0,0,0h.18l0,0,0,0h.17l0,0,0,0H4.26l.07,0a.28.28,0,0,0,.2-.31.42.42,0,0,0-.11-.18.26.26,0,0,0,.11-.26.32.32,0,0,0-.14-.2.27.27,0,0,0,.15-.24.31.31,0,0,0-.12-.22.27.27,0,0,0,.12-.22.28.28,0,0,0-.15-.24.28.28,0,0,0,0-.47.3.3,0,0,0,.11-.22.28.28,0,0,0-.15-.24.28.28,0,0,0,.15-.25A.33.33,0,0,0,4.43,7a.26.26,0,0,0,.11-.21.37.37,0,0,0-.15-.26.28.28,0,0,0,.15-.25.29.29,0,0,0-.11-.22.25.25,0,0,0,.11-.21.32.32,0,0,0-.14-.25.28.28,0,0,0,0-.46.33.33,0,0,0,.11-.21.31.31,0,0,0-.14-.25.29.29,0,0,0,.14-.25.33.33,0,0,0-.11-.22A.26.26,0,0,0,4.54,4a.3.3,0,0,0-.1-.22h.7A.32.32,0,0,0,5.05,4a.27.27,0,0,0,.1.21.33.33,0,0,0-.1.23.29.29,0,0,0,.32.28h.76a.28.28,0,0,0-.08.2.3.3,0,0,0,.1.22.29.29,0,0,0-.1.22.32.32,0,0,0,.32.3h.77a.28.28,0,0,0-.06.18.24.24,0,0,0,.09.22.29.29,0,0,0-.09.22.27.27,0,0,0,.3.29h.8a.29.29,0,0,0-.1.22A.25.25,0,0,0,8.19,7a.29.29,0,0,0-.11.22.3.3,0,0,0,.32.29h.79a.28.28,0,0,0-.08.2.29.29,0,0,0,.1.22.29.29,0,0,0-.1.22.29.29,0,0,0,.3.3h.78a.26.26,0,0,0-.08.19.27.27,0,0,0,.1.22.29.29,0,0,0-.1.22c0,.17.12.28.32.28h.79a.28.28,0,0,0-.08.15.25.25,0,0,0,.09.27.35.35,0,0,0-.09.17.26.26,0,0,0,.18.32l.08,0h0l0,0,0,0h.17l0,0,0,0H12l0,0,0,0h.17l0,0,0,0h4.12l0,0,0,0h1l.06,0a.29.29,0,0,0,.19-.34.27.27,0,0,0-.1-.16A.25.25,0,0,0,17.67,9.51Z"/><path class="cls-1" d="M80.05,9.52a.3.3,0,0,0-.29-.24H79a.24.24,0,0,0,.07-.2.27.27,0,0,0-.1-.21.24.24,0,0,0,.1-.23.29.29,0,0,0-.31-.28h-.82a.26.26,0,0,0,.1-.23.28.28,0,0,0-.1-.21A.26.26,0,0,0,78,7.7.29.29,0,0,0,78,7.52h1.8a.27.27,0,0,0,.31-.29A.34.34,0,0,0,80,7a.32.32,0,0,0,.09-.23.34.34,0,0,0-.14-.25.24.24,0,0,0,.13-.24A.25.25,0,0,0,80,6.08a.28.28,0,0,0,.09-.22.27.27,0,0,0-.12-.25.25.25,0,0,0,.12-.24A.27.27,0,0,0,80,5.15a.26.26,0,0,0,.09-.22.28.28,0,0,0-.11-.24.29.29,0,0,0,.12-.25A.37.37,0,0,0,80,4.23.32.32,0,0,0,80.06,4a.35.35,0,0,0-.14-.25.23.23,0,0,0,.13-.24A.28.28,0,0,0,80,3.29a.24.24,0,0,0,.09-.22.27.27,0,0,0-.13-.24.25.25,0,0,0,.13-.25.25.25,0,0,0-.1-.21.26.26,0,0,0,.1-.23.29.29,0,0,0-.13-.24.23.23,0,0,0,.13-.24A.28.28,0,0,0,80,1.44a.23.23,0,0,0,.09-.21A.29.29,0,0,0,79.92,1a.26.26,0,0,0,.13-.22A.27.27,0,0,0,80,.52a.26.26,0,0,0,.1-.2A.3.3,0,0,0,79.76,0H60.66a.29.29,0,0,0-.3.3.29.29,0,0,0,.1.22.29.29,0,0,0-.1.22.28.28,0,0,0,.13.24.29.29,0,0,0-.13.25.27.27,0,0,0,.1.21.26.26,0,0,0-.1.23.24.24,0,0,0,.13.23.28.28,0,0,0-.13.24.28.28,0,0,0,.1.23.28.28,0,0,0-.1.21.29.29,0,0,0,.13.25.27.27,0,0,0-.13.24.25.25,0,0,0,.1.22.29.29,0,0,0-.1.22.27.27,0,0,0,.13.24.32.32,0,0,0-.13.26.25.25,0,0,0,.09.21.32.32,0,0,0-.09.23.24.24,0,0,0,.12.23.29.29,0,0,0-.12.25.28.28,0,0,0,.09.22.28.28,0,0,0-.09.22.27.27,0,0,0,.12.24.29.29,0,0,0-.12.25.26.26,0,0,0,.09.21.31.31,0,0,0-.09.22.27.27,0,0,0,.13.25.32.32,0,0,0-.13.26.26.26,0,0,0,.09.21.32.32,0,0,0-.09.23.26.26,0,0,0,.12.24.26.26,0,0,0-.12.24.28.28,0,0,0,.09.22.28.28,0,0,0-.09.22.29.29,0,0,0,.13.25.27.27,0,0,0-.13.24.25.25,0,0,0,.1.22.29.29,0,0,0-.1.22.26.26,0,0,0,.13.24.31.31,0,0,0-.13.25.21.21,0,0,0,.1.21.33.33,0,0,0-.1.23c0,.18.13.23.25.3h2l0,0,0,0h2l.06,0a.27.27,0,0,0,.19-.33.31.31,0,0,0-.1-.16.26.26,0,0,0,.1-.28.32.32,0,0,0-.13-.18.25.25,0,0,0,.14-.25.26.26,0,0,0-.11-.21.28.28,0,0,0,0-.46.27.27,0,0,0,.14-.25.32.32,0,0,0-.1-.22.29.29,0,0,0,.1-.22.33.33,0,0,0-.08-.2h7.75a.29.29,0,0,0-.07.18.29.29,0,0,0,.1.23.3.3,0,0,0-.1.21.27.27,0,0,0,.29.29h.84a.27.27,0,0,0,0,.44.29.29,0,0,0-.11.21.29.29,0,0,0,.32.29h.77a.24.24,0,0,0-.09.14.25.25,0,0,0,.1.28.31.31,0,0,0-.1.16.27.27,0,0,0,.19.33l.06,0h1l0,0,0,0H78.9l0,0,0,0h.18l0,0,0,0h.17l0,0,0,0h.17l0,0,0,0h.06l.08,0a.28.28,0,0,0,.2-.33.3.3,0,0,0-.1-.17A.25.25,0,0,0,80.05,9.52ZM64.79,4.22a.27.27,0,0,0,.1-.22.32.32,0,0,0-.14-.25.25.25,0,0,0,.14-.24.28.28,0,0,0-.11-.22.25.25,0,0,0,.11-.22.27.27,0,0,0-.08-.19h10.8a.26.26,0,0,0-.08.19.23.23,0,0,0,.1.22.29.29,0,0,0-.1.22.25.25,0,0,0,.13.24.29.29,0,0,0-.13.26.28.28,0,0,0,.09.22.25.25,0,0,0-.09.22.26.26,0,0,0,.06.18H64.82a.27.27,0,0,0,.07-.19A.3.3,0,0,0,64.79,4.22Z"/><path class="cls-1" d="M188.62,9.53a.3.3,0,0,0-.13-.2.29.29,0,0,0,0-.46.25.25,0,0,0,.1-.22.28.28,0,0,0-.13-.24.27.27,0,0,0,.13-.25.28.28,0,0,0-.09-.22.28.28,0,0,0,.09-.22.26.26,0,0,0-.12-.24.26.26,0,0,0,.12-.25.29.29,0,0,0-.09-.22.24.24,0,0,0,.09-.22.31.31,0,0,0-.13-.25.26.26,0,0,0,.13-.24.32.32,0,0,0-.09-.23.25.25,0,0,0,.09-.21.3.3,0,0,0-.12-.25.27.27,0,0,0,.12-.24.28.28,0,0,0-.09-.22.28.28,0,0,0,.09-.22.26.26,0,0,0-.12-.24.26.26,0,0,0,.12-.24.28.28,0,0,0-.09-.22.28.28,0,0,0,.09-.22.32.32,0,0,0-.13-.26.24.24,0,0,0,.13-.22.27.27,0,0,0-.1-.24.23.23,0,0,0,.1-.2.26.26,0,0,0-.13-.26.28.28,0,0,0,.13-.24.29.29,0,0,0-.1-.22.26.26,0,0,0,.1-.22.3.3,0,0,0-.13-.25.24.24,0,0,0,.13-.23.26.26,0,0,0-.1-.23.24.24,0,0,0,.1-.21.27.27,0,0,0-.13-.25.27.27,0,0,0,.13-.24.26.26,0,0,0-.1-.22.29.29,0,0,0,.1-.22.29.29,0,0,0-.31-.3h-3.89a.31.31,0,0,0-.33.3.31.31,0,0,0,.11.22.28.28,0,0,0-.11.22.28.28,0,0,0,.15.24.28.28,0,0,0-.15.25.25.25,0,0,0,.11.21.28.28,0,0,0-.11.23.26.26,0,0,0,.15.23.28.28,0,0,0,0,.47.27.27,0,0,0-.11.22.28.28,0,0,0,.15.24.28.28,0,0,0-.15.25.26.26,0,0,0,.11.21.27.27,0,0,0,0,.46.33.33,0,0,0-.15.27.26.26,0,0,0,.1.2.33.33,0,0,0-.1.23.27.27,0,0,0,.14.24.27.27,0,0,0-.14.24.3.3,0,0,0,.1.22.29.29,0,0,0-.1.22.28.28,0,0,0,.13.24.3.3,0,0,0-.13.25.28.28,0,0,0,.1.21.32.32,0,0,0-.1.22.26.26,0,0,0,.15.25.3.3,0,0,0-.15.26.28.28,0,0,0,.1.21.32.32,0,0,0-.1.22.27.27,0,0,0,.14.25.26.26,0,0,0-.14.24.27.27,0,0,0,.11.22.27.27,0,0,0-.11.22.31.31,0,0,0,.15.25.26.26,0,0,0-.15.23.26.26,0,0,0,.11.23.27.27,0,0,0-.11.21.25.25,0,0,0,.15.25.32.32,0,0,0-.15.21.27.27,0,0,0,.11.25.4.4,0,0,0-.11.19.29.29,0,0,0,.22.31l.06,0h4l.07,0c.18-.06.24-.15.22-.32a.32.32,0,0,0-.1-.18A.25.25,0,0,0,188.62,9.53Z"/><path class="cls-1" d="M101.17,9.51a.28.28,0,0,0-.12-.18.26.26,0,0,0,.13-.24.29.29,0,0,0-.1-.22.27.27,0,0,0,.1-.22.28.28,0,0,0-.13-.24.27.27,0,0,0,.13-.26.29.29,0,0,0-.09-.21.29.29,0,0,0,.09-.23.28.28,0,0,0-.12-.23.27.27,0,0,0,.12-.25.29.29,0,0,0-.09-.22.27.27,0,0,0,.09-.22.3.3,0,0,0-.13-.25.27.27,0,0,0,.13-.25.29.29,0,0,0-.09-.22.27.27,0,0,0,.09-.22.3.3,0,0,0-.12-.24.26.26,0,0,0,.12-.24.28.28,0,0,0-.09-.22.28.28,0,0,0,.09-.22.29.29,0,0,0-.12-.25.25.25,0,0,0,.12-.24.29.29,0,0,0-.09-.22.27.27,0,0,0,.09-.22.29.29,0,0,0-.13-.25.24.24,0,0,0,.13-.23.29.29,0,0,0-.1-.23.27.27,0,0,0,.1-.21.29.29,0,0,0-.13-.25.29.29,0,0,0,.13-.25.28.28,0,0,0-.1-.21.28.28,0,0,0,.1-.23.28.28,0,0,0-.13-.24.27.27,0,0,0,.13-.24.29.29,0,0,0-.1-.22.27.27,0,0,0,.1-.22.27.27,0,0,0-.13-.24.29.29,0,0,0,.13-.25.28.28,0,0,0-.1-.21.31.31,0,0,0,.1-.23.29.29,0,0,0-.3-.29H81.79a.31.31,0,0,0-.31.3.28.28,0,0,0,.11.22.24.24,0,0,0-.11.22.29.29,0,0,0,.14.24.27.27,0,0,0-.14.25.26.26,0,0,0,.11.21.27.27,0,0,0-.11.22.26.26,0,0,0,.14.24.32.32,0,0,0-.14.25.28.28,0,0,0,.11.22.27.27,0,0,0-.11.22.29.29,0,0,0,.14.24.27.27,0,0,0-.14.24.27.27,0,0,0,.11.22.27.27,0,0,0-.11.22.26.26,0,0,0,.14.24.33.33,0,0,0-.14.26.27.27,0,0,0,.1.21.33.33,0,0,0-.1.23.25.25,0,0,0,.13.23.31.31,0,0,0-.13.25.3.3,0,0,0,.1.22.29.29,0,0,0-.1.22.28.28,0,0,0,.13.24.31.31,0,0,0-.13.25.24.24,0,0,0,.1.21.32.32,0,0,0-.1.22.26.26,0,0,0,.14.25.33.33,0,0,0-.14.26.24.24,0,0,0,.1.21.33.33,0,0,0-.1.23.27.27,0,0,0,.14.24.27.27,0,0,0-.14.25.28.28,0,0,0,.1.21.29.29,0,0,0-.1.22.29.29,0,0,0,.14.25.29.29,0,0,0-.14.24.27.27,0,0,0,.11.22.27.27,0,0,0-.11.22.27.27,0,0,0,.14.24.33.33,0,0,0-.14.21.25.25,0,0,0,.11.25.31.31,0,0,0-.11.19.29.29,0,0,0,.22.31l.06,0h4l0,0,0,0H97.86l0,0,0,0h2l0,0,0,0h1l.06,0a.27.27,0,0,0,.19-.34.26.26,0,0,0-.09-.16A.24.24,0,0,0,101.17,9.51ZM85.92,7A.27.27,0,0,0,86,6.8a.32.32,0,0,0-.13-.26A.26.26,0,0,0,86,6.29a.29.29,0,0,0-.09-.21A.29.29,0,0,0,86,5.85a.31.31,0,0,0-.12-.24A.28.28,0,0,0,86,5.38a.29.29,0,0,0-.09-.23A.27.27,0,0,0,86,4.94a.27.27,0,0,0-.12-.25A.28.28,0,0,0,86,4.44a.29.29,0,0,0-.09-.21A.29.29,0,0,0,86,4a.3.3,0,0,0-.13-.25A.26.26,0,0,0,86,3.51a.29.29,0,0,0-.1-.22.27.27,0,0,0,.1-.22.29.29,0,0,0-.07-.19h10.8a.32.32,0,0,0-.1.22.28.28,0,0,0,.12.2.31.31,0,0,0-.12.23.31.31,0,0,0,.15.23.3.3,0,0,0-.14.26.27.27,0,0,0,.1.21.3.3,0,0,0,0,.47.29.29,0,0,0-.14.24.33.33,0,0,0,.11.22.33.33,0,0,0-.11.22.32.32,0,0,0,.14.24.31.31,0,0,0-.13.24.23.23,0,0,0,.1.22.32.32,0,0,0-.1.22.26.26,0,0,0,.14.25.29.29,0,0,0-.14.25.23.23,0,0,0,.1.22.3.3,0,0,0-.1.21.23.23,0,0,0,.08.21H85.94A.29.29,0,0,0,86,7.24.28.28,0,0,0,85.92,7Z"/><path class="cls-1" d="M182.67,4a.32.32,0,0,0-.13-.26.24.24,0,0,0,.13-.23.29.29,0,0,0-.1-.23.27.27,0,0,0,.1-.21.29.29,0,0,0-.13-.25.28.28,0,0,0,.13-.23.29.29,0,0,0-.1-.23.28.28,0,0,0,.1-.21.3.3,0,0,0-.31-.31h-.76a.27.27,0,0,0,.07-.18.29.29,0,0,0-.1-.23.25.25,0,0,0,.1-.21.29.29,0,0,0-.31-.3h-.79a.33.33,0,0,0,.09-.21.26.26,0,0,0-.11-.21.29.29,0,0,0,.11-.22.32.32,0,0,0-.32-.3H163.28a.3.3,0,0,0-.31.3.3.3,0,0,0,.1.22.29.29,0,0,0-.1.22.27.27,0,0,0,.14.24.26.26,0,0,0-.14.24.27.27,0,0,0,.1.22.29.29,0,0,0-.1.22.25.25,0,0,0,.14.24.3.3,0,0,0-.14.25.3.3,0,0,0,.1.22.29.29,0,0,0-.1.22.27.27,0,0,0,.14.24.27.27,0,0,0-.14.25.27.27,0,0,0,.1.21.29.29,0,0,0-.1.22.25.25,0,0,0,.14.24A.3.3,0,0,0,163,4a.28.28,0,0,0,.09.22.28.28,0,0,0-.09.22.27.27,0,0,0,.13.24.27.27,0,0,0-.13.24.29.29,0,0,0,.09.22.32.32,0,0,0-.09.22.3.3,0,0,0,.12.24.31.31,0,0,0-.12.24.3.3,0,0,0,.09.23.31.31,0,0,0-.09.21.25.25,0,0,0,.14.25.3.3,0,0,0-.14.26.28.28,0,0,0,.09.22.28.28,0,0,0-.09.22.27.27,0,0,0,.13.24.27.27,0,0,0-.13.24.26.26,0,0,0,.1.22.29.29,0,0,0,0,.47.28.28,0,0,0,0,.46.3.3,0,0,0-.1.22.25.25,0,0,0,.14.24.34.34,0,0,0-.14.18.26.26,0,0,0,.11.28A.42.42,0,0,0,163,10a.29.29,0,0,0,.2.33l.05,0h4.13l0,0,0,0h.17l0,0,0,0h.17l0,0,0,0h.17l0,0,0,0h3.09l0,0,0,0h2l0,0,0,0h7l.1-.05a.27.27,0,0,0,.17-.3.32.32,0,0,0-.1-.17.29.29,0,0,0,.1-.27.28.28,0,0,0-.09-.16h.8a.27.27,0,0,0,.31-.27.29.29,0,0,0-.1-.23.27.27,0,0,0,.1-.21.28.28,0,0,0-.08-.2h.77a.3.3,0,0,0,.31-.3.28.28,0,0,0-.09-.22.31.31,0,0,0,.09-.21.29.29,0,0,0-.12-.25.28.28,0,0,0,.12-.24.28.28,0,0,0-.09-.22.27.27,0,0,0,.09-.22.32.32,0,0,0-.13-.26.26.26,0,0,0,.13-.24.28.28,0,0,0-.09-.22.28.28,0,0,0,.09-.22.33.33,0,0,0-.12-.25.28.28,0,0,0,.12-.23.29.29,0,0,0-.09-.23.31.31,0,0,0,.09-.21.27.27,0,0,0-.12-.25.27.27,0,0,0,.12-.25.31.31,0,0,0-.09-.21A.28.28,0,0,0,182.67,4ZM167.41,7a.28.28,0,0,0,.09-.21.3.3,0,0,0-.14-.26.25.25,0,0,0,.14-.25.34.34,0,0,0-.09-.22.27.27,0,0,0,.09-.22.31.31,0,0,0-.12-.24.3.3,0,0,0,.12-.24.32.32,0,0,0-.09-.22.32.32,0,0,0,.09-.22.28.28,0,0,0-.12-.24.29.29,0,0,0,.12-.25.36.36,0,0,0-.09-.22A.27.27,0,0,0,167.5,4a.31.31,0,0,0-.13-.25.26.26,0,0,0,.13-.24.29.29,0,0,0-.1-.22.27.27,0,0,0,.1-.22.26.26,0,0,0-.08-.19h8.78a.25.25,0,0,0-.07.19.27.27,0,0,0,.09.22.28.28,0,0,0-.09.22c0,.17.11.28.3.28h.75a.32.32,0,0,0-.07.2.28.28,0,0,0,.09.22.28.28,0,0,0-.09.22.3.3,0,0,0,.31.3h.8a.28.28,0,0,0-.08.2.29.29,0,0,0,.1.23.28.28,0,0,0,0,.4h-.79a.3.3,0,0,0-.31.3.27.27,0,0,0,.09.22.31.31,0,0,0-.09.22.27.27,0,0,0,.07.2h-.76a.29.29,0,0,0-.29.31.27.27,0,0,0,.09.22.25.25,0,0,0-.09.22.24.24,0,0,0,.07.19h-8.77a.29.29,0,0,0,.07-.19A.32.32,0,0,0,167.41,7Z"/><path class="cls-1" d="M122.32,4.93a.27.27,0,0,0-.14-.24.27.27,0,0,0,.14-.24.33.33,0,0,0-.1-.23.27.27,0,0,0,.1-.21A.32.32,0,0,0,122,3.7H107.07a.25.25,0,0,0,.08-.18.28.28,0,0,0-.12-.23.27.27,0,0,0,.12-.21.25.25,0,0,0-.09-.2H122a.31.31,0,0,0,.32-.29.31.31,0,0,0-.11-.22.31.31,0,0,0,.11-.22.31.31,0,0,0-.15-.25.27.27,0,0,0,.15-.24.3.3,0,0,0-.11-.22.27.27,0,0,0,.11-.22.28.28,0,0,0-.15-.24.31.31,0,0,0,.15-.26.31.31,0,0,0-.11-.2.3.3,0,0,0,.11-.24A.32.32,0,0,0,122,0H102.92a.3.3,0,0,0-.31.3.31.31,0,0,0,.11.22.27.27,0,0,0-.11.22.32.32,0,0,0,.14.24.25.25,0,0,0-.13.25.25.25,0,0,0,.09.21.26.26,0,0,0-.09.23.23.23,0,0,0,.13.23.3.3,0,0,0-.13.25.24.24,0,0,0,.1.22.26.26,0,0,0-.1.22.24.24,0,0,0,.13.24.25.25,0,0,0-.13.25.26.26,0,0,0,.09.21.26.26,0,0,0-.09.23.23.23,0,0,0,.13.23.32.32,0,0,0-.13.26.22.22,0,0,0,.09.21.32.32,0,0,0-.09.23.22.22,0,0,0,.12.23.33.33,0,0,0-.13.25.3.3,0,0,0,.1.22.3.3,0,0,0-.1.22.28.28,0,0,0,.13.24.27.27,0,0,0-.12.24.24.24,0,0,0,.09.22.29.29,0,0,0-.09.22.27.27,0,0,0,.3.29h15a.3.3,0,0,0-.08.21.26.26,0,0,0,.08.22.33.33,0,0,0-.08.22.3.3,0,0,0,.06.2H102.93a.29.29,0,0,0-.32.29.29.29,0,0,0,.1.22.3.3,0,0,0-.1.22.29.29,0,0,0,.14.25.23.23,0,0,0-.13.24.27.27,0,0,0,.09.22.25.25,0,0,0-.09.22.24.24,0,0,0,.13.24.35.35,0,0,0-.14.25.22.22,0,0,0,.11.21.39.39,0,0,0-.11.22c0,.19.14.25.26.31h6l0,0,0,0h2l0,0,0,0h8l0,0,0,0h3l.08-.05a.27.27,0,0,0,.15-.34.3.3,0,0,0-.09-.13.29.29,0,0,0,.09-.31.29.29,0,0,0-.13-.16.27.27,0,0,0,.15-.24.3.3,0,0,0-.11-.22.27.27,0,0,0,.11-.22.28.28,0,0,0-.15-.24.29.29,0,0,0,.15-.25.27.27,0,0,0-.11-.22.27.27,0,0,0,.11-.22.28.28,0,0,0-.14-.24.27.27,0,0,0,.14-.25.3.3,0,0,0-.1-.22.29.29,0,0,0,.1-.22.31.31,0,0,0-.15-.25.28.28,0,0,0,.15-.25.32.32,0,0,0-.1-.22.27.27,0,0,0,.1-.21.31.31,0,0,0-.13-.25.28.28,0,0,0,.13-.24.29.29,0,0,0-.1-.22A.3.3,0,0,0,122.32,4.93Z"/><path class="cls-1" d="M58.94,4.94a.33.33,0,0,0-.14-.26.27.27,0,0,0,.14-.23.3.3,0,0,0-.11-.23A.25.25,0,0,0,58.94,4a.31.31,0,0,0-.15-.26.28.28,0,0,0,.15-.24.3.3,0,0,0-.12-.22.27.27,0,0,0,.12-.22.3.3,0,0,0-.15-.24.31.31,0,0,0,.15-.24.3.3,0,0,0-.12-.22.31.31,0,0,0,.12-.22.33.33,0,0,0-.15-.25.28.28,0,0,0,.15-.23.31.31,0,0,0-.12-.23.28.28,0,0,0,.12-.21A.29.29,0,0,0,58.79,1a.29.29,0,0,0,.15-.24.27.27,0,0,0-.12-.22A.31.31,0,0,0,58.94.3a.32.32,0,0,0-.31-.3H54.71a.3.3,0,0,0-.31.31.35.35,0,0,0,.1.21.29.29,0,0,0-.1.23.34.34,0,0,0,.13.23.29.29,0,0,0-.13.24.27.27,0,0,0,.1.22.32.32,0,0,0-.1.22.26.26,0,0,0,.13.24.32.32,0,0,0-.13.26.35.35,0,0,0,.1.21.29.29,0,0,0-.1.23.34.34,0,0,0,.13.23.29.29,0,0,0-.13.24.27.27,0,0,0,.1.22.32.32,0,0,0-.1.22.26.26,0,0,0,.13.24A.3.3,0,0,0,54.4,4a.27.27,0,0,0,.09.22.34.34,0,0,0-.09.22.28.28,0,0,0,.12.25.27.27,0,0,0-.12.23.36.36,0,0,0,.09.23.29.29,0,0,0-.09.21.3.3,0,0,0,.12.25.3.3,0,0,0-.12.24.27.27,0,0,0,.09.22.34.34,0,0,0-.09.22.26.26,0,0,0,.13.25.31.31,0,0,0,0,.47.36.36,0,0,0-.09.23.27.27,0,0,0,.07.19H43.69a.26.26,0,0,0,.08-.19A.3.3,0,0,0,43.66,7a.25.25,0,0,0,.11-.21.32.32,0,0,0-.15-.26.28.28,0,0,0,.15-.25.33.33,0,0,0-.11-.22.27.27,0,0,0,.11-.22.32.32,0,0,0-.14-.24.29.29,0,0,0,.14-.24.28.28,0,0,0-.11-.22.3.3,0,0,0,.11-.22.29.29,0,0,0-.14-.24.28.28,0,0,0,0-.47A.25.25,0,0,0,43.77,4a.32.32,0,0,0-.15-.26.27.27,0,0,0,.15-.24.29.29,0,0,0-.12-.22.27.27,0,0,0,.12-.22.28.28,0,0,0-.15-.24.29.29,0,0,0,.15-.24.31.31,0,0,0-.12-.23.27.27,0,0,0,.12-.21.29.29,0,0,0-.15-.25.26.26,0,0,0,.15-.23.31.31,0,0,0-.12-.23.26.26,0,0,0,.12-.21A.28.28,0,0,0,43.62,1a.31.31,0,0,0,.15-.25.3.3,0,0,0-.12-.21.28.28,0,0,0,.12-.23A.33.33,0,0,0,43.45,0H39.56a.31.31,0,0,0-.33.29.33.33,0,0,0,.1.23.27.27,0,0,0-.1.21.29.29,0,0,0,.13.25.29.29,0,0,0-.13.25.27.27,0,0,0,.1.21.29.29,0,0,0-.1.23.24.24,0,0,0,.13.23.3.3,0,0,0,0,.47.28.28,0,0,0-.1.21.29.29,0,0,0,.13.25.29.29,0,0,0-.13.25.27.27,0,0,0,.1.21.29.29,0,0,0-.1.23.24.24,0,0,0,.13.23.3.3,0,0,0-.13.25.27.27,0,0,0,.09.22.34.34,0,0,0-.09.22.28.28,0,0,0,.12.25.28.28,0,0,0-.12.24.28.28,0,0,0,.09.22.28.28,0,0,0-.09.22.28.28,0,0,0,.12.24.31.31,0,0,0-.12.24.29.29,0,0,0,.09.23.31.31,0,0,0-.09.21.26.26,0,0,0,.13.25.3.3,0,0,0-.13.25.25.25,0,0,0,.09.22.34.34,0,0,0-.09.22.26.26,0,0,0,.13.25.27.27,0,0,0-.13.24.32.32,0,0,0,.09.22.32.32,0,0,0-.09.22.29.29,0,0,0,.13.25.29.29,0,0,0,0,.46.29.29,0,0,0-.1.22.25.25,0,0,0,.14.24.32.32,0,0,0-.14.25.27.27,0,0,0,.1.22.29.29,0,0,0-.1.22c0,.18.13.24.26.3h2.09l0,0,0,0h.17l0,0,0,0h.18l0,0,0,0h.17l0,0,0,0h3.09l0,0,0,0h2l0,0,0,0h8l0,0,0,0h3l.09-.05a.28.28,0,0,0,.15-.33.28.28,0,0,0-.09-.14.29.29,0,0,0,.09-.3.31.31,0,0,0-.13-.17.28.28,0,0,0,.15-.24.27.27,0,0,0-.12-.22.27.27,0,0,0,.12-.22.28.28,0,0,0-.15-.24.33.33,0,0,0,.15-.24.27.27,0,0,0-.11-.23.33.33,0,0,0,.11-.21.29.29,0,0,0-.14-.25.32.32,0,0,0,.14-.24A.3.3,0,0,0,58.83,7a.31.31,0,0,0,.11-.2.33.33,0,0,0-.15-.27.28.28,0,0,0,.15-.25.39.39,0,0,0-.11-.22.27.27,0,0,0,.11-.22.33.33,0,0,0-.14-.24.31.31,0,0,0,.14-.23.27.27,0,0,0-.11-.23A.36.36,0,0,0,58.94,4.94Z"/><path class="cls-1" d="M215.74,7.73a.3.3,0,0,0-.32-.3h-3.91a.3.3,0,0,0-.33.28.33.33,0,0,0,.1.23.3.3,0,0,0-.1.21.31.31,0,0,0,.14.26.3.3,0,0,0-.14.23.27.27,0,0,0,.11.23.31.31,0,0,0-.11.21.28.28,0,0,0,.15.25.28.28,0,0,0-.14.18.26.26,0,0,0,.1.28.44.44,0,0,0-.1.16.27.27,0,0,0,.19.33l.06,0h1l0,0,0,0h3l.07,0a.27.27,0,0,0,.2-.33.36.36,0,0,0-.11-.16.25.25,0,0,0,.11-.28.31.31,0,0,0-.14-.18.27.27,0,0,0,.15-.24.28.28,0,0,0-.11-.22.27.27,0,0,0,.11-.21.28.28,0,0,0-.15-.25.28.28,0,0,0,.15-.25.27.27,0,0,0-.11-.22A.26.26,0,0,0,215.74,7.73Z"/><path class="cls-1" d="M37.82,2.15a.29.29,0,0,0-.15-.25.26.26,0,0,0,.15-.23.31.31,0,0,0-.12-.23.26.26,0,0,0,.12-.21A.29.29,0,0,0,37.67,1a.29.29,0,0,0,.15-.25A.31.31,0,0,0,37.7.51a.27.27,0,0,0,.12-.22A.33.33,0,0,0,37.49,0H19.43a.34.34,0,0,0-.33.29.31.31,0,0,0,.12.23.27.27,0,0,0-.12.21.28.28,0,0,0,.15.25.31.31,0,0,0-.15.26.25.25,0,0,0,.12.2.28.28,0,0,0-.12.23.24.24,0,0,0,.15.23.32.32,0,0,0-.15.26.27.27,0,0,0,.12.21.28.28,0,0,0-.12.23.28.28,0,0,0,.15.23.29.29,0,0,0-.15.25.26.26,0,0,0,.12.21.28.28,0,0,0-.12.23.26.26,0,0,0,.15.23A.31.31,0,0,0,19.1,4a.27.27,0,0,0,.11.22.29.29,0,0,0-.11.22.27.27,0,0,0,.14.25.29.29,0,0,0-.14.24.29.29,0,0,0,.11.22.27.27,0,0,0-.11.22.28.28,0,0,0,.13.24.31.31,0,0,0-.13.25.27.27,0,0,0,.1.21.33.33,0,0,0-.1.23.27.27,0,0,0,.15.24.31.31,0,0,0-.15.25.29.29,0,0,0,.1.22.3.3,0,0,0-.1.22.27.27,0,0,0,.14.25.29.29,0,0,0-.14.24.27.27,0,0,0,.11.22.29.29,0,0,0-.11.22.28.28,0,0,0,.15.25.28.28,0,0,0-.15.24.27.27,0,0,0,.12.22.31.31,0,0,0-.12.22.27.27,0,0,0,.15.24.32.32,0,0,0-.15.21.27.27,0,0,0,.12.25.35.35,0,0,0-.12.19.29.29,0,0,0,.2.3l.08,0h8l0,0,0,0h4l0,0,0,0h6l.07,0a.27.27,0,0,0,.2-.31.42.42,0,0,0-.11-.18.25.25,0,0,0,.11-.26.3.3,0,0,0-.14-.2.27.27,0,0,0,.15-.24.31.31,0,0,0-.12-.22.26.26,0,0,0,.12-.21.29.29,0,0,0-.15-.25.31.31,0,0,0,.15-.26.33.33,0,0,0-.11-.21.3.3,0,0,0,.11-.23.32.32,0,0,0-.34-.28H23.57a.28.28,0,0,0,.08-.2A.33.33,0,0,0,23.54,7a.25.25,0,0,0,.11-.21.3.3,0,0,0-.1-.22h11.9a.3.3,0,0,0,.33-.28.33.33,0,0,0-.1-.23.25.25,0,0,0,.1-.21.31.31,0,0,0-.13-.25.28.28,0,0,0,0-.46.27.27,0,0,0,.11-.22.29.29,0,0,0-.14-.24.26.26,0,0,0,.14-.24.33.33,0,0,0-.1-.23.27.27,0,0,0,.1-.21.33.33,0,0,0-.32-.31H23.57a.25.25,0,0,0,.08-.18.31.31,0,0,0-.12-.23.26.26,0,0,0,.12-.21.29.29,0,0,0-.09-.2H37.49a.32.32,0,0,0,.33-.29.31.31,0,0,0-.12-.23A.27.27,0,0,0,37.82,2.15Z"/><path class="cls-1" d="M256,.29a.31.31,0,0,0-.31-.29h-4.95a.32.32,0,0,0-.31.3.33.33,0,0,0,.11.22.3.3,0,0,0-.11.22.33.33,0,0,0,.09.2h-.76a.31.31,0,0,0-.33.29.27.27,0,0,0,.11.22.3.3,0,0,0-.11.22.26.26,0,0,0,.08.19h-.76a.31.31,0,0,0-.32.29.3.3,0,0,0,.11.23.31.31,0,0,0-.11.21.27.27,0,0,0,.06.17h-.76a.29.29,0,0,0-.31.3.28.28,0,0,0,.09.22.26.26,0,0,0-.09.21.28.28,0,0,0,.12.25h-.84l-.12,0h-.78a.29.29,0,0,0,0-.43.33.33,0,0,0,.1-.23.3.3,0,0,0-.32-.29h-.76a.22.22,0,0,0,.05-.16.26.26,0,0,0-.1-.22.27.27,0,0,0,.1-.22.29.29,0,0,0-.29-.3h-.77a.24.24,0,0,0,.06-.18.29.29,0,0,0-.09-.23.26.26,0,0,0,.09-.21.28.28,0,0,0-.3-.3h-.78a.28.28,0,0,0,.08-.2.29.29,0,0,0-.1-.22.3.3,0,0,0-.2-.52H237.6a.31.31,0,0,0-.32.29.3.3,0,0,0,.11.23.26.26,0,0,0-.11.21.31.31,0,0,0,.32.3h.77a.3.3,0,0,0-.07.2.27.27,0,0,0,.1.21.29.29,0,0,0-.1.23.26.26,0,0,0,.29.27h.82a.26.26,0,0,0-.1.2.3.3,0,0,0,.11.23.29.29,0,0,0-.11.21.31.31,0,0,0,.32.3h.75a.28.28,0,0,0,0,.4.32.32,0,0,0-.1.22.29.29,0,0,0,.32.29h.78a.3.3,0,0,0-.1.22.25.25,0,0,0,.11.21.29.29,0,0,0,.22.51h.79a.28.28,0,0,0-.08.2.28.28,0,0,0,.1.22.29.29,0,0,0-.1.22.3.3,0,0,0,.31.3h.76a.25.25,0,0,0-.07.19.27.27,0,0,0,.1.21.32.32,0,0,0-.1.22.29.29,0,0,0,.32.29h.79a.37.37,0,0,0-.09.21.27.27,0,0,0,.1.22.35.35,0,0,0-.1.22.29.29,0,0,0,.13.25.27.27,0,0,0-.13.24.29.29,0,0,0,.1.22.3.3,0,0,0,0,.47.28.28,0,0,0-.12.24.23.23,0,0,0,.1.22.26.26,0,0,0-.1.22.23.23,0,0,0,.13.24.35.35,0,0,0-.14.25.23.23,0,0,0,.11.21.38.38,0,0,0-.11.23c0,.18.14.23.26.3h1l0,0,0,0h3l.07,0a.28.28,0,0,0,.21-.32.32.32,0,0,0-.1-.18.25.25,0,0,0,.1-.26.3.3,0,0,0-.13-.2.26.26,0,0,0,.13-.24.29.29,0,0,0-.1-.22.25.25,0,0,0,.1-.22.28.28,0,0,0-.13-.24.28.28,0,0,0,.13-.24.27.27,0,0,0-.09-.23.26.26,0,0,0,.09-.21.29.29,0,0,0-.13-.26.26.26,0,0,0,.11-.23.32.32,0,0,0-.09-.23.26.26,0,0,0,.09-.21.31.31,0,0,0-.08-.22h.79a.28.28,0,0,0,.32-.29.32.32,0,0,0-.1-.22.27.27,0,0,0,.1-.21.29.29,0,0,0-.07-.19h.76a.3.3,0,0,0,.31-.29.29.29,0,0,0-.1-.23.28.28,0,0,0,.1-.21.29.29,0,0,0-.08-.21h.79c.2,0,.32-.1.32-.28a.32.32,0,0,0-.09-.22.31.31,0,0,0,0-.44h.79a.27.27,0,0,0,.3-.28.28.28,0,0,0-.09-.22.28.28,0,0,0,.09-.22.29.29,0,0,0-.06-.19h.74a.29.29,0,0,0,.32-.29.29.29,0,0,0-.1-.22.3.3,0,0,0,0-.43h.79a.29.29,0,0,0,.32-.27.3.3,0,0,0-.11-.23.27.27,0,0,0,.11-.21.25.25,0,0,0-.09-.2h.79a.3.3,0,0,0,.31-.3.27.27,0,0,0-.1-.21A.33.33,0,0,0,256,.29Z"/><path class="cls-1" d="M140.43,1.23a.29.29,0,0,0-.15-.25.3.3,0,0,0,.15-.24.27.27,0,0,0-.12-.22.32.32,0,0,0,.12-.22.33.33,0,0,0-.33-.3h-16a.31.31,0,0,0-.31.3.29.29,0,0,0,.1.22.29.29,0,0,0-.1.22.27.27,0,0,0,.14.24.27.27,0,0,0-.14.25.27.27,0,0,0,.1.21.31.31,0,0,0-.1.23.24.24,0,0,0,.14.23.3.3,0,0,0-.14.25.3.3,0,0,0,.1.22.29.29,0,0,0-.1.22.3.3,0,0,0,.32.29h5.81a.32.32,0,0,0-.07.2.27.27,0,0,0,.1.21.29.29,0,0,0-.1.23.24.24,0,0,0,.13.23.29.29,0,0,0-.13.25.27.27,0,0,0,.09.22.34.34,0,0,0-.09.22.28.28,0,0,0,.12.25.28.28,0,0,0-.12.23.3.3,0,0,0,.09.23.29.29,0,0,0-.09.21.3.3,0,0,0,.12.25.3.3,0,0,0-.12.24.27.27,0,0,0,.09.22.34.34,0,0,0-.09.22.26.26,0,0,0,.13.25.29.29,0,0,0-.13.25.27.27,0,0,0,.09.22.34.34,0,0,0-.09.22.28.28,0,0,0,.12.25.29.29,0,0,0-.12.25.31.31,0,0,0,.09.21.28.28,0,0,0-.09.22.29.29,0,0,0,.13.25.29.29,0,0,0,0,.46.27.27,0,0,0-.1.22.26.26,0,0,0,.13.24.31.31,0,0,0-.13.29.25.25,0,0,0,.1.17.36.36,0,0,0-.1.27c0,.16.15.2.26.26h4l.08,0a.28.28,0,0,0,.21-.33.33.33,0,0,0-.1-.17.27.27,0,0,0,.1-.27.3.3,0,0,0-.13-.19.24.24,0,0,0,.13-.23.29.29,0,0,0-.1-.23.27.27,0,0,0,.1-.21.27.27,0,0,0-.13-.25.28.28,0,0,0,.13-.24.29.29,0,0,0-.09-.23.29.29,0,0,0,.09-.21.28.28,0,0,0-.12-.25.27.27,0,0,0,.12-.25.27.27,0,0,0-.09-.21.29.29,0,0,0,.09-.23.31.31,0,0,0-.13-.25.26.26,0,0,0,.13-.25.34.34,0,0,0-.09-.22.27.27,0,0,0,.09-.22.3.3,0,0,0-.12-.24.28.28,0,0,0,.12-.23.29.29,0,0,0-.09-.23.31.31,0,0,0,.09-.21.3.3,0,0,0-.12-.26.25.25,0,0,0,.12-.24.34.34,0,0,0-.09-.22.27.27,0,0,0,.09-.22.3.3,0,0,0-.13-.25.26.26,0,0,0,.13-.24.29.29,0,0,0-.1-.22.27.27,0,0,0,.1-.22.29.29,0,0,0-.07-.19h5.83a.32.32,0,0,0,.33-.29.29.29,0,0,0-.12-.22.29.29,0,0,0,.12-.22.31.31,0,0,0-.15-.25.26.26,0,0,0,.15-.23.31.31,0,0,0-.12-.23A.26.26,0,0,0,140.43,1.23Z"/><path class="cls-1" d="M277,9.79a.26.26,0,0,0,.09-.27.3.3,0,0,0-.12-.19.26.26,0,0,0,.13-.24.29.29,0,0,0-.1-.22.29.29,0,0,0,0-.46.29.29,0,0,0,.13-.25.32.32,0,0,0-.09-.22.32.32,0,0,0,.09-.22.28.28,0,0,0-.3-.29H261.86a.33.33,0,0,0,.07-.21.4.4,0,0,0-.09-.21.27.27,0,0,0,.09-.22.34.34,0,0,0-.09-.21h12.93a.29.29,0,0,0,.32-.28.33.33,0,0,0-.1-.23.27.27,0,0,0,.1-.21.29.29,0,0,0-.07-.19h.75a.29.29,0,0,0,.33-.29.29.29,0,0,0-.09-.23.34.34,0,0,0,.09-.21.35.35,0,0,0-.07-.21h.77a.27.27,0,0,0,.3-.28.36.36,0,0,0-.09-.23A.26.26,0,0,0,277.1,4a.32.32,0,0,0-.13-.26.25.25,0,0,0,.13-.23.29.29,0,0,0-.1-.23.27.27,0,0,0,.1-.21.29.29,0,0,0-.13-.25.29.29,0,0,0,.13-.25.27.27,0,0,0-.1-.21.3.3,0,0,0,0-.47.24.24,0,0,0,.13-.23.29.29,0,0,0-.1-.23.27.27,0,0,0,.1-.21A.29.29,0,0,0,277,1a.29.29,0,0,0,.13-.25.28.28,0,0,0-.1-.21.3.3,0,0,0,.1-.22.29.29,0,0,0-.3-.3H257.71a.32.32,0,0,0-.32.3.39.39,0,0,0,.11.22.3.3,0,0,0-.11.22.3.3,0,0,0,.15.24.29.29,0,0,0-.15.25.28.28,0,0,0,.12.21.29.29,0,0,0-.12.23.28.28,0,0,0,.15.23.31.31,0,0,0-.15.25.36.36,0,0,0,.11.22.31.31,0,0,0-.11.22.32.32,0,0,0,.32.29h14.94a.29.29,0,0,0-.09.2.26.26,0,0,0,.12.21.31.31,0,0,0-.12.23.24.24,0,0,0,.09.18h-12.9a.31.31,0,0,0-.33.3.27.27,0,0,0,.1.22.35.35,0,0,0-.1.22.29.29,0,0,0,.07.19h-.74a.3.3,0,0,0-.33.28.32.32,0,0,0,.09.24.31.31,0,0,0-.09.2.32.32,0,0,0,.06.2h-.78a.32.32,0,0,0-.31.31.27.27,0,0,0,.11.21.3.3,0,0,0-.11.23.29.29,0,0,0,.15.24.31.31,0,0,0-.15.25.25.25,0,0,0,.11.22.28.28,0,0,0,0,.47.28.28,0,0,0,0,.46.28.28,0,0,0,0,.47.28.28,0,0,0-.15.24.3.3,0,0,0,.12.22.27.27,0,0,0-.12.22.29.29,0,0,0,.15.24.3.3,0,0,0-.14.21.25.25,0,0,0,.11.25.31.31,0,0,0-.11.19.29.29,0,0,0,.21.31l.07,0h4l0,0,0,0h4l.05,0,0,0h8l0,0,0,0h2l0,0,0,0h1l.06,0a.27.27,0,0,0,.19-.33A.28.28,0,0,0,277,9.79Z"/></g></g></svg>